# xmcd CD database file
#
# Track frame offsets:
#	150
#	11255
#	30785
#	48370
#	60712
#	84332
#	92490
#	111715
#	133067
#	148807
#	170697
#	185059
#	213350
#	243634
#	261100
#	290877
#
# Disc length: 4315 seconds
#
# Revision: 0
# Processed by: cddbd v1.4PL0 Copyright (c) Steve Scherf et al.
# Submitted via: CDex 1.50
#
DISCID=ec10d910
DTITLE=George Winston - Plains
DYEAR=1999
DGENRE=New Age
TTITLE0=Dubuque
TTITLE1=Before Barbed Wire
TTITLE2=Frangenti
TTITLE3=Give Me Your Hand - La Valse Pour Les Petites Juenes Filles
TTITLE4=No Ke Ano Ahiahi
TTITLE5=Graduation
TTITLE6=Teach Me Tonight
TTITLE7=Rainsong
TTITLE8=Merry Go Round
TTITLE9=The Dance
TTITLE10=Cloudburst
TTITLE11=The Swan
TTITLE12='Ike Ia Ladana (Queen's Jubilee)
TTITLE13=Plains (Eastern Montana Blues)
TTITLE14=Angel
TTITLE15=Waltz for the Lonely
EXTD=YEAR: 1999
EXTT0=
EXTT1=
EXTT2=
EXTT3=
EXTT4=
EXTT5=
EXTT6=
EXTT7=
EXTT8=
EXTT9=
EXTT10=
EXTT11=
EXTT12=
EXTT13=
EXTT14=
EXTT15=
PLAYORDER=
